# xmcd CD database file
#
# Track frame offsets:
#	150
#	18255
#	45647
#	61742
#	84723
#	105389
#	118409
#	139558
#	165526
#	189024
#	213396
#	229609
#
# Disc length: 3346 seconds
#
# Revision: 0
# Processed by: cddbd v1.5.1PL0 Copyright (c) Steve Scherf et al.
# Submitted via: CDex 1.50
#
DISCID=920d100c
DTITLE=Jazz Kids - Dixieland
DYEAR=1990
DGENRE=Jazz
TTITLE0=Stevedore Stomp
TTITLE1=Wabash Blues
TTITLE2=Hiawatha Rag
TTITLE3=Wolverine Blues
TTITLE4=Tishomingo Blues
TTITLE5=We shall not be moved
TTITLE6=Bugle Boy March
TTITLE7=Fidgety Feet
TTITLE8=Royal Garden Blues
TTITLE9=When you wore a Tulip
TTITLE10=Lord Lord Lord
TTITLE11=Shine
EXTD=YEAR: 1990
EXTT0=
EXTT1=
EXTT2=
EXTT3=
EXTT4=
EXTT5=
EXTT6=
EXTT7=
EXTT8=
EXTT9=
EXTT10=
EXTT11=
PLAYORDER=
